<?xml version="1.0" encoding="UTF-8" standalone="no"?>
<!-- Created with Inkscape (http://www.inkscape.org/) -->

<svg
   xmlns:dc="http://purl.org/dc/elements/1.1/"
   xmlns:cc="http://creativecommons.org/ns#"
   xmlns:rdf="http://www.w3.org/1999/02/22-rdf-syntax-ns#"
   xmlns:svg="http://www.w3.org/2000/svg"
   xmlns="http://www.w3.org/2000/svg"
   xmlns:sodipodi="http://sodipodi.sourceforge.net/DTD/sodipodi-0.dtd"
   xmlns:inkscape="http://www.inkscape.org/namespaces/inkscape"
   width="1280"
   height="720"
   viewBox="0 0 1280 719.99999"
   id="svg3357"
   version="1.1"
   inkscape:version="0.91 r13725"
   sodipodi:docname="drawing.svg">
  <defs
     id="defs3359" />
  <sodipodi:namedview
     id="base"
     pagecolor="#ffffff"
     bordercolor="#666666"
     borderopacity="1.0"
     inkscape:pageopacity="0.0"
     inkscape:pageshadow="2"
     inkscape:zoom="0.7"
     inkscape:cx="601.22766"
     inkscape:cy="390.07751"
     inkscape:document-units="px"
     inkscape:current-layer="layer1"
     showgrid="false"
     inkscape:window-width="1440"
     inkscape:window-height="851"
     inkscape:window-x="0"
     inkscape:window-y="1"
     inkscape:window-maximized="1"
     inkscape:showpageshadow="false"
     showguides="true"
     inkscape:guide-bbox="true"
     units="px">
    <sodipodi:guide
       position="631.42857,602.85713"
       orientation="1,0"
       id="guide3367" />
  </sodipodi:namedview>
  <metadata
     id="metadata3362">
    <rdf:RDF>
      <cc:Work
         rdf:about="">
        <dc:format>image/svg+xml</dc:format>
        <dc:type
           rdf:resource="http://purl.org/dc/dcmitype/StillImage" />
        <dc:title></dc:title>
      </cc:Work>
    </rdf:RDF>
  </metadata>
  <g
     inkscape:label="Layer 1"
     inkscape:groupmode="layer"
     id="layer1"
     transform="translate(0,-332.36225)">
    <rect
       style="fill:none;fill-rule:evenodd;stroke:#000000;stroke-width:0.23940009px;stroke-linecap:butt;stroke-linejoin:miter;stroke-opacity:1"
       id="rect3369"
       width="919.76062"
       height="719.76056"
       x="180.11971"
       y="332.4819" />
    <rect
       style="fill:none;fill-rule:evenodd;stroke:#000000;stroke-width:1px;stroke-linecap:butt;stroke-linejoin:miter;stroke-opacity:1"
       id="rect4171"
       width="1275.7142"
       height="54.285709"
       x="2.8571429"
       y="335.21939" />
    <rect
       style="fill:none;fill-rule:evenodd;stroke:#000000;stroke-width:1.2081362px;stroke-linecap:butt;stroke-linejoin:miter;stroke-opacity:1"
       id="rect4177"
       width="825.50586"
       height="298.93488"
       x="274.10406"
       y="421.6091" />
    <rect
       style="fill:none;fill-rule:evenodd;stroke:#000000;stroke-width:1px;stroke-linecap:butt;stroke-linejoin:miter;stroke-opacity:1"
       id="rect4179"
       width="225.71428"
       height="208.57143"
       x="18.571428"
       y="523.79083" />
    <rect
       style="fill:none;fill-rule:evenodd;stroke:#000000;stroke-width:1.31715453px;stroke-linecap:butt;stroke-linejoin:miter;stroke-opacity:1"
       id="rect4181"
       width="224.82585"
       height="208.25427"
       x="18.729578"
       y="842.23511" />
    <rect
       style="fill:none;fill-rule:evenodd;stroke:#000000;stroke-width:1px;stroke-linecap:butt;stroke-linejoin:miter;stroke-opacity:1"
       id="rect4183"
       width="587.14288"
       height="57.142857"
       x="488.57141"
       y="740.93372" />
    <rect
       style="fill:none;fill-rule:evenodd;stroke:#000000;stroke-width:1px;stroke-linecap:butt;stroke-linejoin:miter;stroke-opacity:1"
       id="rect4185"
       width="168.57143"
       height="84.285713"
       x="301.42856"
       y="780.93365" />
    <rect
       style="fill:none;fill-rule:evenodd;stroke:#000000;stroke-width:1.30538404px;stroke-linecap:butt;stroke-linejoin:miter;stroke-opacity:1"
       id="rect4187"
       width="586.83752"
       height="241.12361"
       x="488.72412"
       y="812.51453" />
    <rect
       style="fill:none;fill-rule:evenodd;stroke:#000000;stroke-width:1px;stroke-linecap:butt;stroke-linejoin:miter;stroke-opacity:1"
       id="rect4189"
       width="142.85715"
       height="530"
       x="1121.4286"
       y="522.36224" />
    <path
       sodipodi:type="spiral"
       style="fill:none;fill-rule:evenodd;stroke:#000000;stroke-width:1px;stroke-linecap:butt;stroke-linejoin:miter;stroke-opacity:1"
       id="path4212"
       sodipodi:cx="405.71429"
       sodipodi:cy="573.79077"
       sodipodi:expansion="1"
       sodipodi:revolution="3"
       sodipodi:radius="140.58914"
       sodipodi:argument="-17.765131"
       sodipodi:t0="0"
       d="m 405.71429,573.79077 c 3.29482,6.23149 -6.77437,7.51574 -10.35714,5.4762 -9.70907,-5.52704 -7.26918,-19.39338 -0.59525,-26.19048 11.93811,-12.15841 31.88251,-7.86563 42.02382,4.2857 14.88277,17.83256 8.53543,44.56117 -9.16665,57.85714 -23.59408,17.72144 -57.30977,9.23984 -73.69048,-14.04758 -20.61345,-29.30485 -9.96281,-70.09234 18.92853,-89.52382 34.99129,-23.53413 82.89417,-10.69667 105.35716,23.80948 26.47186,40.66429 11.43737,95.70801 -28.69043,121.19049 -46.32913,29.42052 -108.52989,12.18265 -137.02382,-33.57137 -32.37661,-51.98863 -12.93112,-121.35742 38.45231,-152.85717 57.64445,-35.33795 134.18904,-13.6819 168.6905,43.33327 38.30316,63.29763 14.43441,147.02374 -48.21421,184.52383" />
    <path
       sodipodi:type="spiral"
       style="fill:none;fill-rule:evenodd;stroke:#000000;stroke-width:1px;stroke-linecap:butt;stroke-linejoin:miter;stroke-opacity:1"
       id="path4214"
       sodipodi:cx="672.57141"
       sodipodi:cy="503.79086"
       sodipodi:expansion="1"
       sodipodi:revolution="3"
       sodipodi:radius="69.164108"
       sodipodi:argument="-17.947048"
       sodipodi:t0="0"
       d="m 672.57141,503.79086 c 2.14879,2.7218 -2.6088,4.23937 -4.52381,3.57143 -5.18957,-1.81007 -5.2432,-8.73634 -2.61904,-12.61905 4.69401,-6.94527 14.726,-6.64336 20.71429,-1.66665 8.78805,7.30351 8.09587,20.80085 0.71426,28.80952 -9.83852,10.67431 -26.90645,9.57136 -36.90476,-0.23812 -12.58186,-12.34423 -11.05885,-33.02684 1.19051,-45 14.83562,-14.50111 39.15557,-12.55332 53.09524,2.1429 16.42742,17.31898 14.05217,45.28951 -3.09529,61.19047 -19.79742,18.3583 -51.42693,15.55396 -69.28571,-4.04767 -20.29228,-22.27262 -17.05779,-57.5668 5.00006,-77.38095 24.74557,-22.22849 63.70844,-18.5631 85.47619,5.95245 24.16633,27.2169 20.06952,69.85142 -6.90484,93.57143" />
    <path
       sodipodi:type="spiral"
       style="fill:none;fill-rule:evenodd;stroke:#000000;stroke-width:1px;stroke-linecap:butt;stroke-linejoin:miter;stroke-opacity:1"
       id="path4216"
       sodipodi:cx="967.14288"
       sodipodi:cy="549.50513"
       sodipodi:expansion="1"
       sodipodi:revolution="3"
       sodipodi:radius="105.36623"
       sodipodi:argument="-17.987387"
       sodipodi:t0="0"
       d="m 967.14288,549.50513 c 3.43807,4.01107 -3.71062,6.61336 -6.66666,5.71429 -8.01069,-2.43643 -8.51784,-12.97619 -4.76192,-19.04762 6.71846,-10.86035 22.00755,-11.01711 31.42857,-3.80955 13.82573,10.57739 13.60133,31.16535 2.85718,43.80953 -14.32026,16.85269 -40.36855,16.22238 -56.19048,1.9048 -19.91028,-18.01721 -18.86263,-49.59351 -0.95244,-68.57143 21.69165,-22.9848 58.83077,-21.51402 80.95237,-6e-5 26.0696,25.35344 24.1724,68.07567 -0.9523,93.33333 -29.00745,29.16098 -77.32568,26.83545 -105.71428,-1.90467 -32.25692,-32.65635 -29.50176,-86.57931 2.85705,-118.09524 36.30169,-35.35612 95.83553,-32.17044 130.47623,3.80941 38.4577,39.94446 34.8409,105.09375 -4.7618,142.85715" />
    <path
       sodipodi:type="spiral"
       style="fill:none;fill-rule:evenodd;stroke:#000000;stroke-width:1px;stroke-linecap:butt;stroke-linejoin:miter;stroke-opacity:1"
       id="path4218"
       sodipodi:cx="795.71429"
       sodipodi:cy="533.79083"
       sodipodi:expansion="1"
       sodipodi:revolution="3"
       sodipodi:radius="77.722687"
       sodipodi:argument="-17.907557"
       sodipodi:t0="0"
       d="m 795.71429,533.79083 c 2.29205,3.15156 -3.11742,4.6445 -5.23809,3.80953 -5.74689,-2.26271 -5.49981,-10.04237 -2.38096,-14.28571 5.57889,-7.59035 16.83009,-6.80626 23.33333,-0.9524 9.54378,8.59077 8.16772,23.71578 -0.47617,32.38095 -11.52094,11.54932 -30.63701,9.5536 -41.42857,-1.90473 -13.58007,-14.41915 -10.95231,-37.57539 3.3333,-50.47619 17.30179,-15.62461 44.52344,-12.35849 59.52381,4.76186 17.67742,20.17575 13.76937,51.47755 -6.19043,68.57143 -23.04437,19.73557 -58.43568,15.18337 -77.61905,-7.61899 -21.79736,-25.9095 -16.59956,-65.39666 9.04756,-86.66667 28.77219,-23.86175 72.35969,-18.01734 95.71429,10.47612 25.92804,31.63315 19.4363,79.32428 -11.90469,104.76191" />
    <path
       sodipodi:type="spiral"
       style="fill:none;fill-rule:evenodd;stroke:#000000;stroke-width:1px;stroke-linecap:butt;stroke-linejoin:miter;stroke-opacity:1"
       id="path4220"
       sodipodi:cx="912.85712"
       sodipodi:cy="625.21942"
       sodipodi:expansion="1"
       sodipodi:revolution="3"
       sodipodi:radius="95.96981"
       sodipodi:argument="-18.053633"
       sodipodi:t0="0"
       d="m 912.85712,625.21942 c 3.36644,3.43806 -2.97356,6.23411 -5.71428,5.59524 -7.42721,-1.73128 -8.52361,-11.27949 -5.47621,-17.0238 5.45108,-10.27523 19.33671,-11.33954 28.33333,-5.35717 13.2029,8.77937 14.2403,27.50372 5.23813,39.64285 -11.99847,16.17956 -35.70977,17.17728 -50.95238,5.1191 -19.18126,-15.17399 -20.133,-43.93445 -5.00005,-62.2619 18.32803,-22.19701 52.16961,-23.0996 73.57142,-4.88102 25.2213,21.46996 26.07301,60.41131 4.76198,84.88095 -24.60442,28.25116 -68.65738,29.05097 -96.19047,4.64294 -31.28484,-27.73395 -32.03212,-76.90653 -4.52391,-107.5 30.86006,-34.32125 85.15791,-35.01557 118.80953,-4.40487 37.35969,33.98369 38.00079,93.41097 4.28583,130.11905" />
    <flowRoot
       xml:space="preserve"
       id="flowRoot4224"
       style="font-style:normal;font-weight:normal;font-size:40px;line-height:125%;font-family:sans-serif;letter-spacing:0px;word-spacing:0px;fill:#000000;fill-opacity:1;stroke:none;stroke-width:1px;stroke-linecap:butt;stroke-linejoin:miter;stroke-opacity:1"
       transform="translate(0,332.36225)"><flowRegion
         id="flowRegion4226"><rect
           id="rect4228"
           width="438.57144"
           height="138.57143"
           x="454.28571"
           y="264.28571" /></flowRegion><flowPara
         id="flowPara4230">some kind of cool photo will go here</flowPara></flowRoot>    <text
       xml:space="preserve"
       style="font-style:normal;font-weight:normal;font-size:40px;line-height:125%;font-family:sans-serif;letter-spacing:0px;word-spacing:0px;fill:#000000;fill-opacity:1;stroke:none;stroke-width:1px;stroke-linecap:butt;stroke-linejoin:miter;stroke-opacity:1"
       x="22.857143"
       y="376.64795"
       id="text4232"
       sodipodi:linespacing="125%"><tspan
         sodipodi:role="line"
         id="tspan4234"
         x="22.857143"
         y="376.64795">Julie runs this</tspan></text>
    <text
       xml:space="preserve"
       style="font-style:normal;font-weight:normal;font-size:40px;line-height:125%;font-family:sans-serif;letter-spacing:0px;word-spacing:0px;fill:#000000;fill-opacity:1;stroke:none;stroke-width:1px;stroke-linecap:butt;stroke-linejoin:miter;stroke-opacity:1"
       x="357.14285"
       y="382.36224"
       id="text4236"
       sodipodi:linespacing="125%"><tspan
         sodipodi:role="line"
         id="tspan4238"
         x="357.14285"
         y="382.36224" /></text>
    <text
       xml:space="preserve"
       style="font-style:normal;font-weight:normal;font-size:30px;line-height:125%;font-family:sans-serif;letter-spacing:0px;word-spacing:0px;fill:#000000;fill-opacity:1;stroke:none;stroke-width:1px;stroke-linecap:butt;stroke-linejoin:miter;stroke-opacity:1;"
       x="357.14285"
       y="370.93369"
       id="text4240"
       sodipodi:linespacing="125%"><tspan
         sodipodi:role="line"
         id="tspan4242"
         x="357.14285"
         y="370.93369">Nav bar with Journalism, Running, Lifestyle</tspan></text>
    <text
       xml:space="preserve"
       style="font-style:normal;font-weight:normal;font-size:40px;line-height:125%;font-family:sans-serif;letter-spacing:0px;word-spacing:0px;fill:#000000;fill-opacity:1;stroke:none;stroke-width:1px;stroke-linecap:butt;stroke-linejoin:miter;stroke-opacity:1"
       x="530"
       y="782.36224"
       id="text4244"
       sodipodi:linespacing="125%"><tspan
         sodipodi:role="line"
         id="tspan4246"
         x="530"
         y="782.36224">Headline</tspan></text>
    <text
       xml:space="preserve"
       style="font-style:normal;font-weight:normal;font-size:25px;line-height:125%;font-family:sans-serif;letter-spacing:0px;word-spacing:0px;fill:#000000;fill-opacity:1;stroke:none;stroke-width:1px;stroke-linecap:butt;stroke-linejoin:miter;stroke-opacity:1;"
       x="322.85715"
       y="849.50513"
       id="text4248"
       sodipodi:linespacing="125%"><tspan
         sodipodi:role="line"
         id="tspan4250"
         x="322.85715"
         y="849.50513">Social tools</tspan></text>
    <flowRoot
       xml:space="preserve"
       id="flowRoot4252"
       style="font-style:normal;font-weight:normal;font-size:40px;line-height:125%;font-family:sans-serif;letter-spacing:0px;word-spacing:0px;fill:#000000;fill-opacity:1;stroke:none;stroke-width:1px;stroke-linecap:butt;stroke-linejoin:miter;stroke-opacity:1"
       transform="translate(0,332.36225)"><flowRegion
         id="flowRegion4254"><rect
           id="rect4256"
           width="500"
           height="117.14286"
           x="522.85712"
           y="558.57141" /></flowRegion><flowPara
         id="flowPara4258">article text</flowPara></flowRoot>    <flowRoot
       xml:space="preserve"
       id="flowRoot4264"
       style="font-style:normal;font-weight:normal;font-size:25px;line-height:125%;font-family:sans-serif;letter-spacing:0px;word-spacing:0px;fill:#000000;fill-opacity:1;stroke:none;stroke-width:1px;stroke-linecap:butt;stroke-linejoin:miter;stroke-opacity:1;"
       transform="translate(0,332.36225)"><flowRegion
         id="flowRegion4266"><rect
           id="rect4268"
           width="128.57143"
           height="498.57144"
           x="1128.5714"
           y="211.42857"
           style="font-size:25px;" /></flowRegion><flowPara
         id="flowPara4270">links to cool stuff from other sites</flowPara></flowRoot>    <flowRoot
       xml:space="preserve"
       id="flowRoot4272"
       style="font-style:normal;font-weight:normal;font-size:40px;line-height:125%;font-family:sans-serif;letter-spacing:0px;word-spacing:0px;fill:#000000;fill-opacity:1;stroke:none;stroke-width:1px;stroke-linecap:butt;stroke-linejoin:miter;stroke-opacity:1"
       transform="translate(0,332.36225)"><flowRegion
         id="flowRegion4274"><rect
           id="rect4276"
           width="204.28572"
           height="154.28569"
           x="28.571428"
           y="271.42856" /></flowRegion><flowPara
         id="flowPara4278">something else</flowPara></flowRoot>    <flowRoot
       xml:space="preserve"
       id="flowRoot4280"
       style="font-style:normal;font-weight:normal;font-size:40px;line-height:125%;font-family:sans-serif;letter-spacing:0px;word-spacing:0px;fill:#000000;fill-opacity:1;stroke:none;stroke-width:1px;stroke-linecap:butt;stroke-linejoin:miter;stroke-opacity:1"
       transform="translate(8,350.36225)"><flowRegion
         id="flowRegion4282"><rect
           id="rect4284"
           width="224.28572"
           height="129.99991"
           x="15.714284"
           y="581.42853" /></flowRegion><flowPara
         id="flowPara4286">something else</flowPara></flowRoot>  </g>
</svg>
